<svg
   xmlns="http://www.w3.org/2000/svg"
   viewBox="0 0 32 32">
  <g>
    <path
       d="m 6.9451,17.32635 c 4.964433,0 9.928867,0 14.8933,0 -2.197696,2.204237 -4.408813,4.395721 -6.598106,6.607943 -0.720962,0.802556 -0.05096,2.236012 1.031406,2.182057 0.892005,-0.02273 1.34952,-0.898839 1.965329,-1.415317 2.614876,-2.620797 5.241941,-5.229981 7.849201,-7.858035 0.56829,-0.6459 0.262531,-1.603561 -0.37492,-2.070338 C 22.844376,11.911774 19.98924,9.0384955 17.114934,6.1853531 16.316552,5.4584872 14.886991,6.1348447 14.9424,7.21305 c 0.02233,0.8920393 0.898101,1.3497171 1.414623,1.9653227 1.827125,1.8271253 3.654251,3.6542513 5.481377,5.4813773 -5.009653,0.0046 -10.019775,-0.0092 -15.0291353,0.0069 -1.0768547,0.05703 -1.6107331,1.54496 -0.8058897,2.26802 0.2460528,0.248134 0.5918751,0.393508 0.941725,0.391663 z"
       fill="var(--text-color)" />
  </g>
</svg>
